<svg xmlns="http://www.w3.org/2000/svg" width="350.272" height="110.288" viewBox="0 0 350.272 110.288">
  <g id="Group_1" data-name="Group 1" transform="translate(-69.77 -600)">
    <g id="Group_1-2" data-name="Group 1" transform="translate(-754.774 69.042)">
      <rect id="Rectangle_4" data-name="Rectangle 4" width="31.194" height="31.194" transform="translate(868.659 553.016) rotate(45)" fill="rgba(255,255,255,0.8)"/>
      <path id="Rectangle_11" data-name="Rectangle 11" d="M0,0H31.194V31.194H4a4,4,0,0,1-4-4Z" transform="translate(846.602 575.073) rotate(45)" fill="rgba(255,255,255,0.9)"/>
      <rect id="Rectangle_7" data-name="Rectangle 7" width="31.194" height="31.194" transform="translate(912.774 553.016) rotate(45)" fill="rgba(255,255,255,0.8)"/>
      <rect id="Rectangle_9" data-name="Rectangle 9" width="31.194" height="31.194" transform="translate(890.716 575.073) rotate(45)" fill="rgba(255,255,255,0.9)"/>
      <path id="Rectangle_13" data-name="Rectangle 13" d="M0,0H31.194V27.194a4,4,0,0,1-4,4H0Z" transform="translate(912.774 597.131) rotate(45)" fill="#fff"/>
      <path id="Rectangle_14" data-name="Rectangle 14" d="M0,0H31.194V27.194a4,4,0,0,1-4,4H0Z" transform="translate(868.659 597.131) rotate(45)" fill="#fff"/>
      <path id="Rectangle_15" data-name="Rectangle 15" d="M0,0H31.194V27.194a4,4,0,0,1-4,4H0Z" transform="translate(956.889 597.131) rotate(45)" fill="#fff"/>
      <rect id="Rectangle_10" data-name="Rectangle 10" width="31.194" height="31.194" transform="translate(934.831 575.073) rotate(45)" fill="rgba(255,255,255,0.9)"/>
      <path id="Rectangle_12" data-name="Rectangle 12" d="M0,0H27.194a4,4,0,0,1,4,4V31.194H0Z" transform="translate(978.946 575.073) rotate(45)" fill="rgba(255,255,255,0.9)"/>
      <rect id="Rectangle_8" data-name="Rectangle 8" width="31.194" height="31.194" transform="translate(956.889 553.016) rotate(45)" fill="rgba(255,255,255,0.8)"/>
      <path id="Rectangle_5" data-name="Rectangle 5" d="M3,0H31.194V31.194H0V3A3,3,0,0,1,3,0Z" transform="translate(890.716 530.958) rotate(45)" fill="rgba(255,255,255,0.7)"/>
      <path id="Rectangle_6" data-name="Rectangle 6" d="M3,0H31.194V31.194H0V3A3,3,0,0,1,3,0Z" transform="translate(934.831 530.958) rotate(45)" fill="rgba(255,255,255,0.7)"/>
    </g>
    <path id="Path_1" data-name="Path 1" d="M40.254-42.832v27.715A15.978,15.978,0,0,1,38.13-6.8a13.823,13.823,0,0,1-6.138,5.479A21.95,21.95,0,0,1,22.5.586q-8.262,0-12.832-4.233T5.1-15.234v-27.6h9.05v26.221q0,4.951,1.992,7.266t6.592,2.314q4.453,0,6.46-2.329T31.2-16.67V-42.832ZM80.273,0H71.338V-19.131a9.189,9.189,0,0,0-1.26-5.317,4.583,4.583,0,0,0-4.014-1.772q-3.75,0-5.42,2.5t-1.67,8.306V0H50.039V-32.754h6.826l1.2,4.189h.5a9.443,9.443,0,0,1,4.116-3.589,14.016,14.016,0,0,1,5.962-1.216q5.713,0,8.672,3.091t2.959,8.921Zm8.818-41.221q0-4.365,4.863-4.365t4.863,4.365A4.256,4.256,0,0,1,97.6-37.983a5.11,5.11,0,0,1-3.647,1.157q-4.861,0-4.861-4.395ZM98.408,0H89.473V-32.754h8.936Zm23.174-6.533a19.37,19.37,0,0,0,5.625-1.025v6.65A20.056,20.056,0,0,1,119,.586q-5.361,0-7.808-2.71t-2.446-8.13V-26.045h-4.277v-3.779l4.922-2.988,2.578-6.914h5.713v6.973h9.17v6.709h-9.17v15.791a3.488,3.488,0,0,0,1.069,2.813A4.219,4.219,0,0,0,121.582-6.533Zm7.559-26.221h9.785l6.182,18.428a25.568,25.568,0,0,1,1.084,5.684h.176a25.116,25.116,0,0,1,1.26-5.684l6.064-18.428h9.58L149.414,4.189a16,16,0,0,1-5.435,7.676,13.717,13.717,0,0,1-8.247,2.549,20.739,20.739,0,0,1-4.541-.5V6.826a15.275,15.275,0,0,0,3.516.381,6.349,6.349,0,0,0,4.146-1.45,9.4,9.4,0,0,0,2.769-4.38l.527-1.611Z" transform="translate(256.77 679)" fill="#fff"/>
  </g>
</svg>
